# AST/ASF file generated using VICON BodyLanguage
# -----------------------------------------------
:version 1.10
:name VICON
:units
  mass 1.0
  length 0.45
  angle deg
:documentation
   .ast/.asf automatically generated from VICON data using
   VICON BodyBuilder and BodyLanguage model FoxedUp or BRILLIANT.MOD
:root
   order TX TY TZ RX RY RZ
   axis XYZ
   position 0 0 0  
   orientation 0 0 0 
:bonedata
  begin
     id 1 
     name lhipjoint
     direction 0.584852 -0.759097 0.285867 
     length 2.43633 
     axis 0 0 0  XYZ
  end
  begin
     id 2 
     name lfemur
     direction 0.34202 -0.939693 0  
     length 7.14704  
     axis 0 0 20  XYZ
    dof rx ry rz
    limits (-160.0 20.0)
           (-70.0 70.0)
           (-60.0 70.0)
  end
  begin
     id 3 
     name ltibia
     direction 0.342022 -0.939692 0   
     length 7.68483   
     axis 0 0 20   XYZ
    dof rx
    limits (-10.0 170.0)
  end
  begin
     id 4 
     name lfoot
     direction 0.0999605 -0.274639 0.956337   
     length 2.40452   
     axis -90 7.62852e-016 20   XYZ
    dof rx rz
    limits (-45.0 90.0)
           (-70.0 20.0)
  end
  begin
     id 5 
     name ltoes
     direction 1.53468e-011 -4.21881e-011 1   
     length 1.19837   
     axis -90 7.62852e-016 20   XYZ
    dof rx
    limits (-90.0 20.0)
  end
  begin
     id 6 
     name rhipjoint
     direction -0.569886 -0.769002 0.289597   
     length 2.40495  
     axis 0 0 0  XYZ 
  end
  begin
     id 7 
     name rfemur
     direction -0.34202 -0.939693 0   
     length 7.45086   
     axis 0 0 -20   XYZ
    dof rx ry rz
    limits (-160.0 20.0)
           (-70.0 70.0)
           (-70.0 60.0)
  end
  begin
     id 8 
     name rtibia
     direction -0.34202 -0.939693 0   
     length 7.76831   
     axis 0 0 -20   XYZ
    dof rx
    limits (-10.0 170.0)
 end
 begin
     id 9 
     name rfoot
     direction -0.0798572 -0.219406 0.97236   
     length 2.35911  
     axis -90 -7.62852e-016 -20   XYZ
    dof rx rz
    limits (-45.0 90.0)
           (-20.0 70.0)
  end
  begin
     id 10 
     name rtoes
     direction -1.53469e-011 -4.21728e-011 1   
     length 1.18261   
     axis -90 -7.62852e-016 -20   XYZ
    dof rx
    limits (-90.0 20.0)
  end
  begin
     id 11 
     name lowerback
     direction 0.0242088 0.999437 0.0232389   
     length 2.1561   
     axis 0 0 0   XYZ
    dof rx ry rz
    limits (-20.0 45.0)
           (-30.0 30.0)
           (-30.0 30.0)
  end
  begin
     id 12 
     name upperback
     direction -0.0356893 0.999013 -0.0264323   
     length 2.14431   
     axis 0 0 0   XYZ
    dof rx ry rz
    limits (-20.0 45.0)
           (-30.0 30.0)
           (-30.0 30.0)
  end
  begin
     id 13 
     name thorax
     direction -0.0472163 0.998194 -0.0371284   
     length 2.16169   
     axis 0 0 0   XYZ
    dof rx ry rz
    limits (-20.0 45.0)
           (-30.0 30.0)
           (-30.0 30.0)
  end
  begin
     id 14 
     name lowerneck
     direction 0.00863244 0.999921 0.00911972   
     length 1.58651   
     axis 0 0 0   XYZ
    dof rx ry rz
    limits (-20.0 45.0)
           (-30.0 30.0)
           (-30.0 30.0)
  end
  begin
     id 15 
     name upperneck
     direction 0.149523 0.979068 -0.138086   
     length 1.57486   
     axis 0 0 0   XYZ
    dof rx ry rz
    limits (-20.0 45.0)
           (-30.0 30.0)
           (-30.0 30.0)
  end
  begin
     id 16
     name head
     direction 0.0445219 0.997708 -0.0509576  
     length 1.6019  
     axis 0 0 0   XYZ
    dof rx ry rz
    limits (-20.0 45.0)
           (-30.0 30.0)
           (-30.0 30.0)
  end
  begin
     id 17 
     name lclavicle
     direction 0.911271 0.381667 -0.154644  
     length 3.80848  
     axis 0 0 0   XYZ
    dof ry rz
    limits (-20.0 10.0)
           (0.0 20.0)
  end
  begin
     id 18 
     name lhumerus
     direction 1 -4.49003e-011 2.1308e-027   
     length 5.19069   
     axis 180 -30 -90   XYZ
    dof rx ry rz
    limits (-60.0 90.0)
           (-90.0 90.0)
           (-90.0 90.0)
  end
  begin
     id 19
     name lradius
     direction 1 -4.48914e-011 4.01554e-027   
     length 3.30016   
     axis 180 -30 -90   XYZ
    dof rx
    limits (-10.0 170.0)
  end
  begin
     id 20
     name lwrist
     direction 1 -4.49003e-011 1.1934e-026   
     length 1.65008   
     axis -8.46377e-015 90 90   XYZ
    dof ry
    limits (-180.0 0.0)
 end
  begin
     id 21 
     name lhand
     direction 1 -4.49034e-011 2.38659e-026   
     length 0.707698   
     axis -1.52313e-014 90 90   XYZ
    dof rx rz
    limits (-90.0 90.0)
           (-45.0 45.0)
  end
  begin
     id 22 
     name lfingers
     direction 1 -4.48691e-011 4.77775e-026   
     length 0.570564   
     axis -3.04623e-014 90 90   XYZ
    dof rx
    limits (0.0 90.0)
  end
  begin
     id 23
     name lthumb
     direction 0.707107 -6.34832e-011 0.707107   
     length 0.819219   
     axis -90 45 -1.62303e-014   XYZ
    dof rx rz
    limits (-45.0 45.0)
           (-45.0 45.0)
  end
  begin
     id 24 
     name rclavicle
     direction -0.815579 0.573708 -0.0754329   
     length 3.54371  
     axis 0 0 0   XYZ 
    dof ry rz
    limits (-10.0 20.0)
           (-20.0 0.0)
  end
  begin
     id 25 
     name rhumerus
     direction -1 -4.48956e-011 3.05351e-028  
     length 5.23924   
     axis 180 30 90   XYZ
    dof rx ry rz
    limits (-90.0 60.0)
           (-90.0 90.0)
           (-90.0 90.0)
  end
  begin
     id 26 
     name rradius
     direction -1 -4.49013e-011 3.53849e-027   
     length 3.32953   
     axis 180 30 90   XYZ
    dof rx
    limits (-10.0 170.0)
  end
  begin
     id 27 
     name rwrist
     direction -1 -4.48901e-011 1.19374e-026   
     length 1.66477   
     axis -8.46377e-015 -90 -90   XYZ
    dof ry
    limits (-180.0 0.0)
  end
  begin
     id 28
     name rhand
     direction -1 -4.48877e-011 2.38764e-026   
     length 0.607414   
     axis -1.52313e-014 -90 -90   XYZ
    dof rx rz
    limits (-90.0 90.0)
           (-45.0 45.0)
  end
  begin
     id 29
     name rfingers
     direction -1 -4.48882e-011 4.77521e-026   
     length 0.489712   
     axis -3.04623e-014 -90 -90   XYZ
    dof rx
    limits (0.0 90.0)
  end
  begin
     id 30
     name rthumb
     direction -0.707107 -6.34974e-011 0.707107   
     length 0.703132   
     axis -90 -45 1.62303e-014   XYZ
    dof rx rz
    limits (-45.0 45.0)
           (-45.0 45.0)
  end
:hierarchy
  begin
    root lhipjoint rhipjoint lowerback
    lhipjoint lfemur
    lfemur ltibia
    ltibia lfoot
    lfoot ltoes
    rhipjoint rfemur
    rfemur rtibia
    rtibia rfoot
    rfoot rtoes
    lowerback upperback
    upperback thorax
    thorax lowerneck lclavicle rclavicle
    lowerneck upperneck
    upperneck head
    lclavicle lhumerus
    lhumerus lradius
    lradius lwrist
    lwrist lhand lthumb
    lhand lfingers
    rclavicle rhumerus
    rhumerus rradius
    rradius rwrist
    rwrist rhand rthumb
    rhand rfingers
  end

#!OML:ASF E:\VariousWalksJay\Project 1\Capture day 1\Session 1\Actor2.ASF
:FULLY-SPECIFIED
:DEGREES
508
root 9.11422 16.9567 1.87724 2.2153 -77.6745 13.5974
lowerback 9.00772 -2.54384 11.7584
upperback 7.58078 -2.92645 -0.421729
thorax 2.43703 -1.09842 -6.83874
lowerneck -12.7174 2.80587 2.65189
upperneck 7.21283 3.61648 -3.05173
head 4.32866 1.67402 -1.10158
rclavicle 1.27222e-014 -1.74931e-014
rhumerus -76.1106 17.3882 -127.873
rradius 63.3563
rwrist 7.33944
rhand -5.14822 9.81853
rfingers 7.12502
rthumb 20.651 -19.1029
lclavicle 1.27222e-014 -1.74931e-014
lhumerus -84.147 -31.2518 149.359
lradius 61.5947
lwrist 4.89192
lhand -35.1713 -95.8587
lfingers 7.12502
lthumb -8.31014 -125.675
rfemur -52.5659 8.12888 13.9909
rtibia 29.1132
rfoot 4.58591 -2.73818
rtoes -5.90519
lfemur -16.3143 20.0783 -37.4246
ltibia 25.1477
lfoot -27.8486 15.5102
ltoes -8.78648
509
root 8.95584 17.027 1.89473 5.2396 -77.2376 10.3796
lowerback 7.98586 -2.54229 12.122
upperback 7.14132 -2.98638 -0.173327
thorax 2.51556 -1.12105 -6.80114
lowerneck -12.486 3.22275 3.12835
upperneck 8.72922 4.1764 -3.41257
head 4.79392 1.9356 -1.24017
rclavicle -5.1684e-015 2.22639e-014
rhumerus -76.1845 17.1028 -127.741
rradius 63.521
rwrist 7.54864
rhand -5.32404 9.7049
rfingers 7.12502
rthumb 20.482 -19.2347
lclavicle -5.1684e-015 2.22639e-014
lhumerus -84.3415 -31.1596 149.475
lradius 61.593
lwrist 4.95991
lhand -35.2221 -95.213
lfingers 7.12502
lthumb -8.35914 -125.028
rfemur -52.0534 9.12808 13.727
rtibia 29.7582
rfoot 4.59653 -2.14255
rtoes -5.74213
lfemur -14.5091 19.2228 -36.126
ltibia 23.3507
lfoot -26.8859 15.6661
ltoes -9.44191
510
root 8.7962 17.0932 1.90949 8.001 -76.7099 7.42413
lowerback 6.95408 -2.53157 12.4623
upperback 6.71021 -3.04797 0.060306
thorax 2.61153 -1.14512 -6.76863
lowerneck -12.238 3.62587 3.60108
upperneck 10.1738 4.71204 -3.70312
head 5.23852 2.18743 -1.35763
rclavicle -3.29983e-014 2.78299e-014
rhumerus -76.2169 16.7648 -127.587
rradius 63.7064
rwrist 7.74631
rhand -5.44023 9.61101
rfingers 7.12502
rthumb 20.3704 -19.3406
lclavicle -3.29983e-014 2.78299e-014
lhumerus -84.6144 -31.1267 149.613
lradius 61.6462
lwrist 5.01297
lhand -35.2694 -94.5815
lfingers 7.12502
lthumb -8.40475 -124.394
rfemur -51.5581 10.0346 13.5333
rtibia 30.351
rfoot 4.53485 -1.59492
rtoes -5.71156
lfemur -12.7851 18.2831 -34.8267
ltibia 21.7114
lfoot -25.8804 15.7797
ltoes -10.2742
511
root 8.63626 17.1551 1.92172 10.3678 -76.0909 4.86267
lowerback 5.9281 -2.5167 12.7549
upperback 6.28761 -3.11539 0.270487
thorax 2.71523 -1.1738 -6.73602
lowerneck -11.9831 4.00783 4.05865
upperneck 11.5389 5.21205 -3.915
head 5.65984 2.42546 -1.45065
rclavicle -1.19271e-015 -3.4191e-014
rhumerus -76.2106 16.3832 -127.418
rradius 63.8959
rwrist 7.93414
rhand -5.51309 9.56193
rfingers 7.12502
rthumb 20.3004 -19.3971
lclavicle -1.19271e-015 -3.4191e-014
lhumerus -84.9625 -31.1542 149.779
lradius 61.7462
lwrist 5.04646
lhand -35.302 -93.981
lfingers 7.12502
lthumb -8.4362 -123.793
rfemur -51.0615 10.8276 13.3817
rtibia 30.8784
rfoot 4.42877 -1.07368
rtoes -5.65719
lfemur -11.1685 17.3052 -33.5604
ltibia 20.2721
lfoot -24.8522 15.8128
ltoes -11.2642
512
root 8.47609 17.2126 1.93109 12.3126 -75.3873 2.70948
lowerback 4.92194 -2.5024 12.9913
upperback 5.88104 -3.19189 0.450188
thorax 2.82578 -1.20852 -6.70558
lowerneck -11.7295 4.3658 4.49196
upperneck 12.8176 5.66963 -4.0338
head 6.05504 2.64834 -1.51387
rclavicle 3.02153e-014 2.14687e-014
rhumerus -76.1609 15.9677 -127.249
rradius 64.0791
rwrist 8.08836
rhand -5.52782 9.53326
rfingers 7.12502
rthumb 20.2862 -19.4273
lclavicle 3.02153e-014 2.14687e-014
lhumerus -85.3728 -31.2404 149.966
lradius 61.8775
lwrist 5.06241
lhand -35.327 -93.4079
lfingers 7.12502
lthumb -8.46035 -123.218
rfemur -50.5307 11.5139 13.2609
rtibia 31.328
rfoot 4.27279 -0.576508
rtoes -5.63287
lfemur -9.67453 16.3354 -32.3328
ltibia 19.0764
lfoot -23.8202 15.7487
ltoes -12.4292
513
root 8.31571 17.2659 1.93659 13.9236 -74.6077 0.851802
lowerback 3.962 -2.49332 13.1775
upperback 5.50084 -3.27888 0.605868
thorax 2.93904 -1.24977 -6.67303
lowerneck -11.4904 4.7033 4.88953
upperneck 14.0083 6.08771 -4.0522
head 6.42413 2.85855 -1.54251
rclavicle 1.94809e-014 9.54166e-015
rhumerus -76.0639 15.5337 -127.087
rradius 64.2374
rwrist 8.20294
rhand -5.46992 9.52827
rfingers 7.12502
rthumb 20.3419 -19.4264
lclavicle 1.94809e-014 9.54166e-015
lhumerus -85.8303 -31.3833 150.169
lradius 62.0319
lwrist 5.06605
lhand -35.3488 -92.8706
lfingers 7.12502
lthumb -8.48142 -122.68
rfemur -49.9292 12.1344 13.1801
rtibia 31.6947
rfoot 4.04922 -0.115953
rtoes -5.64158
lfemur -8.30204 15.4148 -31.1141
ltibia 18.1475
lfoot -22.7974 15.5858
ltoes -13.7407
